<?xml version="1.0" encoding="UTF-8"?>
<svg version="1.1" xmlns="http://www.w3.org/2000/svg" width="190" height="135">
<path d="M0 0 C62.7 0 125.4 0 190 0 C190 44.55 190 89.1 190 135 C127.3 135 64.6 135 0 135 C0 90.45 0 45.9 0 0 Z " fill="#643CC0" transform="translate(0,0)"/>
<path d="M0 0 C6.7216706 2.34185864 11.29995102 6.56495409 14.94921875 12.609375 C16.6311575 16.43594197 16.86789569 19.83871427 17 24 C18.13888672 23.94779297 18.13888672 23.94779297 19.30078125 23.89453125 C20.79158203 23.85392578 20.79158203 23.85392578 22.3125 23.8125 C23.29863281 23.77769531 24.28476563 23.74289063 25.30078125 23.70703125 C28 24 28 24 29.65039062 25.18554688 C31.48849381 27.65674494 31.34365643 29.26606189 31.29296875 32.32421875 C31.28330078 33.35224609 31.27363281 34.38027344 31.26367188 35.43945312 C31.23853516 36.51130859 31.21339844 37.58316406 31.1875 38.6875 C31.16719727 40.31268555 31.16719727 40.31268555 31.14648438 41.97070312 C31.11110643 44.64763405 31.06174189 47.32356838 31 50 C32.16571533 49.98952637 33.33143066 49.97905273 34.5324707 49.96826172 C38.85421685 49.93208278 43.17594959 49.90910719 47.49780273 49.89013672 C49.36891938 49.88007433 51.24002028 49.86642309 53.11108398 49.84912109 C55.79935591 49.82488316 58.48742006 49.81351937 61.17578125 49.8046875 C62.01337479 49.79436493 62.85096832 49.78404236 63.71394348 49.77340698 C69.65838488 49.77225659 69.65838488 49.77225659 73 52 C73.38095093 54.65000916 73.38095093 54.65000916 73.38818359 58.05444336 C73.39764008 59.32593735 73.40709656 60.59743134 73.4168396 61.90745544 C73.4114695 63.30158803 73.40531645 64.69571779 73.3984375 66.08984375 C73.40045777 67.51469573 73.40336881 68.93954671 73.40713501 70.36439514 C73.41156207 73.35297474 73.40511635 76.34128559 73.39111328 79.32983398 C73.37403626 83.16128704 73.38385014 86.99210899 73.40183067 90.82353878 C73.41267168 93.76693983 73.40922053 96.71019132 73.4014473 99.65359688 C73.39944534 101.06619911 73.40190443 102.4788149 73.40888596 103.89140129 C73.41650297 105.86631893 73.40283503 107.84128413 73.38818359 109.81616211 C73.38579681 110.94042099 73.38341003 112.06467987 73.38095093 113.2230072 C73 116 73 116 71.82681274 117.86222839 C69.27159498 119.45366365 67.385367 119.38112065 64.3828125 119.38818359 C63.23151855 119.39764008 62.08022461 119.40709656 60.89404297 119.4168396 C59.65025879 119.41076691 58.40647461 119.40469421 57.125 119.3984375 C55.84898926 119.40130768 54.57297852 119.40417786 53.25830078 119.40713501 C50.55795884 119.40917835 47.85842919 119.40513392 45.15820312 119.39111328 C41.6978077 119.37402089 38.23811029 119.38386307 34.77774048 119.40183067 C31.47680194 119.41528016 28.17594764 119.40586244 24.875 119.3984375 C23.63121582 119.40451019 22.38743164 119.41058289 21.10595703 119.4168396 C19.95466309 119.40738312 18.80336914 119.39792664 17.6171875 119.38818359 C16.60253418 119.38579681 15.58788086 119.38341003 14.54248047 119.38095093 C12 119 12 119 10.16064453 117.67495728 C8.4235828 115.16815686 8.80255957 112.9616064 9 110 C8.36772995 110.00666183 7.7354599 110.01332367 7.08403015 110.02018738 C0.51448645 110.08646147 -6.05496259 110.13176761 -12.62475586 110.16479492 C-15.07792008 110.17989881 -17.53105724 110.20038321 -19.98413086 110.22631836 C-23.50641555 110.26263057 -27.02834381 110.27971036 -30.55078125 110.29296875 C-32.20089958 110.31619453 -32.20089958 110.31619453 -33.88435364 110.33988953 C-35.41560127 110.34022942 -35.41560127 110.34022942 -36.9777832 110.34057617 C-37.87713089 110.34723801 -38.77647858 110.35389984 -39.70307922 110.36076355 C-42 110 -42 110 -43.78962708 108.95600891 C-45.6674646 105.9213517 -45.41687359 102.82420823 -45.38818359 99.36328125 C-45.39344055 98.5873764 -45.39869751 97.81147156 -45.40411377 97.01205444 C-45.41732584 94.44533198 -45.40857166 91.87922886 -45.3984375 89.3125 C-45.40045789 87.5303536 -45.40336904 85.74820801 -45.40713501 83.96606445 C-45.41155999 80.23022595 -45.40512176 76.49460257 -45.39111328 72.75878906 C-45.37402124 67.96670916 -45.3838615 63.1751333 -45.40183067 58.3830719 C-45.41266385 54.70280144 -45.40922433 51.02265075 -45.4014473 47.34237671 C-45.39944399 45.57530661 -45.40190912 43.80822568 -45.40888596 42.04116821 C-45.41649285 39.57272476 -45.40490753 37.10510105 -45.38818359 34.63671875 C-45.39425629 33.90415863 -45.40032898 33.17159851 -45.40658569 32.4168396 C-45.36982886 29.49296466 -45.33629324 27.48599329 -43.6444397 25.04101562 C-41.19045885 23.48751846 -39.17884858 23.71133476 -36.3125 23.8125 C-34.82169922 23.85310547 -34.82169922 23.85310547 -33.30078125 23.89453125 C-32.16189453 23.94673828 -32.16189453 23.94673828 -31 24 C-30.8453125 22.205625 -30.8453125 22.205625 -30.6875 20.375 C-29.90817404 14.23780805 -27.24224472 9.47792498 -23 5 C-15.3525555 -0.10972749 -9.1471812 -0.98836068 0 0 Z " fill="#3A91EC" transform="translate(82,4)"/>
<path d="M0 0 C5.49925421 -0.04940929 10.99837942 -0.08572395 16.49780273 -0.10986328 C18.36891938 -0.11992567 20.24002028 -0.13357691 22.11108398 -0.15087891 C24.79935591 -0.17511684 27.48742006 -0.18648063 30.17578125 -0.1953125 C31.01337479 -0.20563507 31.85096832 -0.21595764 32.71394348 -0.22659302 C38.65838488 -0.22774341 38.65838488 -0.22774341 42 2 C42.38095093 4.65000916 42.38095093 4.65000916 42.38818359 8.05444336 C42.39764008 9.32593735 42.40709656 10.59743134 42.4168396 11.90745544 C42.4114695 13.30158803 42.40531645 14.69571779 42.3984375 16.08984375 C42.40045777 17.51469573 42.40336881 18.93954671 42.40713501 20.36439514 C42.41156207 23.35297474 42.40511635 26.34128559 42.39111328 29.32983398 C42.37403626 33.16128704 42.38385014 36.99210899 42.40183067 40.82353878 C42.41267168 43.76693983 42.40922053 46.71019132 42.4014473 49.65359688 C42.39944534 51.06619911 42.40190443 52.4788149 42.40888596 53.89140129 C42.41650297 55.86631893 42.40283503 57.84128413 42.38818359 59.81616211 C42.38579681 60.94042099 42.38341003 62.06467987 42.38095093 63.2230072 C42 66 42 66 40.82681274 67.86222839 C38.27159498 69.45366365 36.385367 69.38112065 33.3828125 69.38818359 C32.23151855 69.39764008 31.08022461 69.40709656 29.89404297 69.4168396 C28.65025879 69.41076691 27.40647461 69.40469421 26.125 69.3984375 C24.84898926 69.40130768 23.57297852 69.40417786 22.25830078 69.40713501 C19.55795884 69.40917835 16.85842919 69.40513392 14.15820312 69.39111328 C10.6978077 69.37402089 7.23811029 69.38386307 3.77774048 69.40183067 C0.47680194 69.41528016 -2.82405236 69.40586244 -6.125 69.3984375 C-7.36878418 69.40451019 -8.61256836 69.41058289 -9.89404297 69.4168396 C-11.04533691 69.40738312 -12.19663086 69.39792664 -13.3828125 69.38818359 C-14.39746582 69.38579681 -15.41211914 69.38341003 -16.45751953 69.38095093 C-19 69 -19 69 -20.83935547 67.67495728 C-22.5764172 65.16815686 -22.19744043 62.9616064 -22 60 C-21.15236084 59.970271 -21.15236084 59.970271 -20.28759766 59.93994141 C-17.73292003 59.84481764 -15.17907459 59.73508942 -12.625 59.625 C-11.29082031 59.57859375 -11.29082031 59.57859375 -9.9296875 59.53125 C-9.07890625 59.49257812 -8.228125 59.45390625 -7.3515625 59.4140625 C-6.56604004 59.3826416 -5.78051758 59.3512207 -4.97119141 59.31884766 C-2.76997061 59.1600535 -2.76997061 59.1600535 -1 57 C-0.6682747 54.49310171 -0.6682747 54.49310171 -0.68115234 51.54052734 C-0.66128265 50.39949554 -0.64141296 49.25846375 -0.62094116 48.08285522 C-0.60938995 46.84637238 -0.59783875 45.60988953 -0.5859375 44.3359375 C-0.56657135 43.07359283 -0.5472052 41.81124817 -0.5272522 40.51065063 C-0.47750955 37.15365788 -0.43627428 33.79677685 -0.39910889 30.43963623 C-0.35911153 27.01434336 -0.30799981 23.58921854 -0.2578125 20.1640625 C-0.1615994 13.44281619 -0.07659418 6.72149695 0 0 Z " fill="#FAB348" transform="translate(113,54)"/>
<path d="M0 0 C6.7216706 2.34185864 11.29995102 6.56495409 14.94921875 12.609375 C16.6311575 16.43594197 16.86789569 19.83871427 17 24 C18.13888672 23.94779297 18.13888672 23.94779297 19.30078125 23.89453125 C20.79158203 23.85392578 20.79158203 23.85392578 22.3125 23.8125 C23.29863281 23.77769531 24.28476563 23.74289063 25.30078125 23.70703125 C28 24 28 24 31 27 C31 34.92 31 42.84 31 51 C7.57 51 -15.86 51 -40 51 C-40 45.39 -40 39.78 -40 34 C-40.66 33.67 -41.32 33.34 -42 33 C-42 31.68 -42 30.36 -42 29 C-42.66 29 -43.32 29 -44 29 C-43.125 25.125 -43.125 25.125 -42 24 C-40.14712498 23.92773498 -38.29166122 23.9161878 -36.4375 23.9375 C-35.42558594 23.94652344 -34.41367187 23.95554687 -33.37109375 23.96484375 C-32.19740234 23.98224609 -32.19740234 23.98224609 -31 24 C-30.8453125 22.205625 -30.8453125 22.205625 -30.6875 20.375 C-29.90817404 14.23780805 -27.24224472 9.47792498 -23 5 C-15.3525555 -0.10972749 -9.1471812 -0.98836068 0 0 Z " fill="#58BDF6" transform="translate(82,4)"/>
<path d="M0 0 C1.01037071 -0.00021904 1.01037071 -0.00021904 2.04115295 -0.0004425 C4.25956483 0.00025215 6.47789192 0.00802358 8.69628906 0.01586914 C10.23756871 0.01773491 11.77884894 0.01915806 13.32012939 0.02015686 C17.3708867 0.02396954 21.42160798 0.03378915 25.47235107 0.04486084 C29.60819003 0.05510183 33.74403482 0.05966024 37.87988281 0.06469727 C45.9905764 0.07541255 54.10124075 0.09247396 62.21191406 0.11352539 C62.21191406 3.74352539 62.21191406 7.37352539 62.21191406 11.11352539 C38.12191406 11.11352539 14.03191406 11.11352539 -10.78808594 11.11352539 C-10.78808594 7.81352539 -10.78808594 4.51352539 -10.78808594 1.11352539 C-6.93316206 0.14979442 -3.95188274 -0.00721146 0 0 Z " fill="#4FB1FA" transform="translate(50.7880859375,63.886474609375)"/>
<path d="M0 0 C0.36708816 7.46412594 0.36708816 7.46412594 -1.09838867 9.60342407 C-3.93330369 11.68543422 -6.23042795 11.38140265 -9.71875 11.38818359 C-10.73630371 11.39606903 -10.73630371 11.39606903 -11.77441406 11.40411377 C-14.01651035 11.41731635 -16.25789651 11.40857538 -18.5 11.3984375 C-20.0579441 11.40045818 -21.61588727 11.40336956 -23.17382812 11.40713501 C-26.43889369 11.41155869 -29.70371305 11.40512609 -32.96875 11.39111328 C-37.15551349 11.37402113 -41.34170007 11.38386211 -45.52844238 11.40183067 C-48.74548699 11.41266746 -51.96239465 11.40922271 -55.17944336 11.4014473 C-56.7232266 11.39944499 -58.26702225 11.40190566 -59.81079102 11.40888596 C-61.96794604 11.41649901 -64.12416478 11.40489972 -66.28125 11.38818359 C-67.50908203 11.38579681 -68.73691406 11.38341003 -70.00195312 11.38095093 C-73 11 -73 11 -74.91992188 9.91323853 C-76.57387731 6.98344004 -76.18612483 4.28820541 -76 1 C-67.12442101 0.86901302 -58.24883408 0.73858106 -49.37323666 0.60884857 C-45.25150595 0.54858497 -41.12977818 0.48813353 -37.00805664 0.42724609 C-33.02694396 0.3684428 -29.04582422 0.31014171 -25.06469917 0.25218201 C-23.54933983 0.2300335 -22.03398307 0.20770709 -20.51862907 0.18519592 C-18.38864676 0.15358526 -16.25865595 0.12261954 -14.12866211 0.09179688 C-12.31331215 0.06514954 -12.31331215 0.06514954 -10.46128845 0.03796387 C-6.97389032 -0.00028637 -3.48757776 -0.00655085 0 0 Z " fill="#498FF8" transform="translate(113,103)"/>
<path d="M0 0 C0.67343445 -0.00029205 1.3468689 -0.00058411 2.04071045 -0.00088501 C4.26465784 0.00050734 6.4882694 0.01606375 8.7121582 0.03173828 C10.25486569 0.03546876 11.79757555 0.03831557 13.34028625 0.04031372 C17.3993281 0.04794749 21.45822666 0.06759372 25.51721191 0.08972168 C29.65964825 0.11018566 33.80210776 0.11931662 37.94458008 0.12939453 C46.07159893 0.1508399 54.19850137 0.1849727 62.32543945 0.22705078 C62.32543945 3.85705078 62.32543945 7.48705078 62.32543945 11.22705078 C38.89543945 10.89705078 15.46543945 10.56705078 -8.67456055 10.22705078 C-9.00456055 7.58705078 -9.33456055 4.94705078 -9.67456055 2.22705078 C-6.03074766 -0.20215781 -4.3384361 -0.01580487 0 0 Z " fill="#4DAEFC" transform="translate(50.674560546875,83.77294921875)"/>
<path d="M0 0 C4.56472293 2.99164918 6.78283456 5.34075317 8.75 10.4375 C8.75 12.7475 8.75 15.0575 8.75 17.4375 C-3.79 17.4375 -16.33 17.4375 -29.25 17.4375 C-29.25 10.761798 -28.16834886 8.4753771 -24.25 3.4375 C-17.20353929 -3.42828223 -8.50729144 -4.69152101 0 0 Z " fill="#603EBE" transform="translate(85.25,10.5625)"/>
<path d="M0 0 C6.7216706 2.34185864 11.29995102 6.56495409 14.94921875 12.609375 C16.6311575 16.43594197 16.86789569 19.83871427 17 24 C20.63 24 24.26 24 28 24 C28 24.33 28 24.66 28 25 C24.37 25 20.74 25 17 25 C17 29.62 17 34.24 17 39 C15.02 39.495 15.02 39.495 13 40 C12.67 39.67 12.34 39.34 12 39 C12 34.38 12 29.76 12 25 C-0.54 25 -13.08 25 -26 25 C-26 29.62 -26 34.24 -26 39 C-27.98 39.495 -27.98 39.495 -30 40 C-32.17130359 37.82869641 -31.23192974 33.00418087 -31.25 30 C-31.270625 29.17371094 -31.29125 28.34742187 -31.3125 27.49609375 C-31.35730569 20.33838453 -30.18046244 13.50338686 -25.75 7.6875 C-18.14930678 0.25954981 -10.39118745 -1.12277661 0 0 Z M-22.7734375 12.18359375 C-25.79387866 16.65654005 -26 18.11745468 -26 24 C-13.46 24 -0.92 24 12 24 C12.00593019 16.14993651 12.00593019 16.14993651 8 10 C3.80711042 6.63679882 -0.62514387 3.67662418 -6.125 3.4375 C-13.56361247 4.51729858 -18.00367653 6.22805421 -22.7734375 12.18359375 Z " fill="#439FE7" transform="translate(82,4)"/>
<path d="M0 0 C0.99 0 1.98 0 3 0 C3.10901505 2.83439137 3.18777904 5.66450203 3.25 8.5 C3.30027344 9.68722656 3.30027344 9.68722656 3.3515625 10.8984375 C3.46692409 17.93549443 1.67632505 23.00518713 -3.03515625 28.27734375 C-3.70417969 28.82519531 -4.37320313 29.37304688 -5.0625 29.9375 C-5.73410156 30.50339844 -6.40570313 31.06929687 -7.09765625 31.65234375 C-10.77202435 34.25533552 -14.12942883 34.16289093 -18.5 34.1875 C-19.6446875 34.20167969 -20.789375 34.21585938 -21.96875 34.23046875 C-25 34 -25 34 -28 32 C-28 30.68 -28 29.36 -28 28 C-27.15695313 28.23589844 -27.15695313 28.23589844 -26.296875 28.4765625 C-20.50515678 29.79644386 -14.90819288 29.94829865 -9.625 27 C-5.51736038 23.99602921 -3.2778888 20.94067472 -2 16 C-1.55912073 12.01167547 -1.3140674 8.10795452 -1.17578125 4.09765625 C-1 1 -1 1 0 0 Z " fill="#E4613B" transform="translate(141,62)"/>
<path d="M0 0 C1.98 0 3.96 0 6 0 C6 2.97 6 5.94 6 9 C5.01 9.33 4.02 9.66 3 10 C2.67 12.97 2.34 15.94 2 19 C3.65 19.33 5.3 19.66 7 20 C7.09765625 26.15234375 7.09765625 26.15234375 7 28 C6.67 28.33 6.34 28.66 6 29 C4.02 29 2.04 29 0 29 C0 19.43 0 9.86 0 0 Z " fill="#3387D8" transform="translate(37,75)"/>
<path d="M0 0 C-0.99 0.99 -1.98 1.98 -3 3 C-2.01 3.33 -1.02 3.66 0 4 C-1.216875 4.37125 -2.43375 4.7425 -3.6875 5.125 C-9.02381672 7.11785456 -11.25540962 10.2086554 -14.25 15 C-15.23414009 17.62437357 -15.62228141 20.23006368 -16 23 C-16.66 22.34 -17.32 21.68 -18 21 C-18.33 23.31 -18.66 25.62 -19 28 C-21.63544278 23.502449 -21.05380978 19.95808865 -20 15 C-16.89608981 7.31412716 -9.34165974 -2.80249792 0 0 Z " fill="#358FDF" transform="translate(72,5)"/>
<path d="M0 0 C-0.33 0.66 -0.66 1.32 -1 2 C-20.14 2 -39.28 2 -59 2 C-59 1.67 -59 1.34 -59 1 C-53.63984555 0.2638816 -48.3606621 -0.18529468 -42.94921875 -0.31640625 C-42.20976517 -0.33718735 -41.47031158 -0.35796844 -40.70845032 -0.37937927 C-39.15472254 -0.42230378 -37.60094276 -0.46338304 -36.04711914 -0.50268555 C-33.70380671 -0.56208664 -31.36070891 -0.6272137 -29.01757812 -0.69335938 C-5.92916159 -1.32889344 -5.92916159 -1.32889344 0 0 Z " fill="#D98C55" transform="translate(153,121)"/>
<path d="M0 0 C1.98 0.495 1.98 0.495 4 1 C4 8.26 4 15.52 4 23 C2.68 23 1.36 23 0 23 C-0.19588601 19.3545658 -0.38030536 15.7086421 -0.5625 12.0625 C-0.61857422 11.02158203 -0.67464844 9.98066406 -0.73242188 8.90820312 C-0.78076172 7.91884766 -0.82910156 6.92949219 -0.87890625 5.91015625 C-0.9260376 4.99371338 -0.97316895 4.07727051 -1.02172852 3.13305664 C-1 1 -1 1 0 0 Z " fill="#75C8F9" transform="translate(107,32)"/>
<path d="M0 0 C0.33 0.66 0.66 1.32 1 2 C1.66 2 2.32 2 3 2 C6.19351677 5.78518971 6.25073351 8.78774073 5.90820312 13.48242188 C5.83537109 14.25134766 5.76253906 15.02027344 5.6875 15.8125 C5.62626953 16.60076172 5.56503906 17.38902344 5.50195312 18.20117188 C5.34956343 20.13534873 5.17680719 22.06790219 5 24 C4.01 24 3.02 24 2 24 C2 17.73 2 11.46 2 5 C1.34 5 0.68 5 0 5 C0 3.35 0 1.7 0 0 Z " fill="#4AAAEC" transform="translate(37,31)"/>
<path d="M0 0 C2.31 0 4.62 0 7 0 C7 3.63 7 7.26 7 11 C5.02 11 3.04 11 1 11 C0.67 7.37 0.34 3.74 0 0 Z " fill="#69BAF5" transform="translate(106,64)"/>
<path d="M0 0 C1.98 0 3.96 0 6 0 C6 3.63 6 7.26 6 11 C4.02 11 2.04 11 0 11 C0 7.37 0 3.74 0 0 Z " fill="#67B6F6" transform="translate(107,84)"/>
<path d="M0 0 C1.32 0.33 2.64 0.66 4 1 C4 1.66 4 2.32 4 3 C8.62 2.67 13.24 2.34 18 2 C18.33 2.99 18.66 3.98 19 5 C15.65109379 6.11630207 13.02460739 6.16765424 9.5 6.1875 C8.3553125 6.20167969 7.210625 6.21585937 6.03125 6.23046875 C3 6 3 6 0 4 C0 2.68 0 1.36 0 0 Z " fill="#E76749" transform="translate(113,90)"/>
<path d="M0 0 C0.33 1.32 0.66 2.64 1 4 C5.29 4 9.58 4 14 4 C14 4.33 14 4.66 14 5 C10.37 5 6.74 5 3 5 C3 9.62 3 14.24 3 19 C2.01 19 1.02 19 0 19 C0 12.73 0 6.46 0 0 Z " fill="#4BA4E9" transform="translate(96,24)"/>
<path d="M0 0 C0.886875 -0.01417969 1.77375 -0.02835937 2.6875 -0.04296875 C5 0.1875 5 0.1875 7 2.1875 C5.02 2.1875 3.04 2.1875 1 2.1875 C1.66 2.8475 2.32 3.5075 3 4.1875 C-0.63 4.1875 -4.26 4.1875 -8 4.1875 C-7.67 3.1975 -7.34 2.2075 -7 1.1875 C-4.52224905 -0.05137548 -2.76346293 0.02008331 0 0 Z " fill="#3F9AE6" transform="translate(77,3.8125)"/>
<path d="M0 0 C1.32 0 2.64 0 4 0 C4 2.64 4 5.28 4 8 C2.68 8.33 1.36 8.66 0 9 C0 6.03 0 3.06 0 0 Z " fill="#2D82D1" transform="translate(37,95)"/>
<path d="M0 0 C0.99 0 1.98 0 3 0 C3 3.63 3 7.26 3 11 C2.01 11 1.02 11 0 11 C0 7.37 0 3.74 0 0 Z " fill="#3D91D9" transform="translate(37,64)"/>
<path d="M0 0 C0.33 0.66 0.66 1.32 1 2 C1.66 2 2.32 2 3 2 C3 9.26 3 16.52 3 24 C2.67 24 2.34 24 2 24 C2 17.73 2 11.46 2 5 C1.34 5 0.68 5 0 5 C0 3.35 0 1.7 0 0 Z " fill="#46A1DF" transform="translate(37,31)"/>
<path d="M0 0 C2.0625 0.4375 2.0625 0.4375 4 1 C3.01 1.495 3.01 1.495 2 2 C2 4.64 2 7.28 2 10 C1.01 10 0.02 10 -1 10 C-1.02689216 8.52093108 -1.04634621 7.04172517 -1.0625 5.5625 C-1.07410156 4.73878906 -1.08570313 3.91507812 -1.09765625 3.06640625 C-1 1 -1 1 0 0 Z " fill="#429DE8" transform="translate(40,84)"/>
</svg>
